<svg id="Capa_1" enable-background="new 0 0 512 512" height="512" viewBox="0 0 512 512" width="512" xmlns="http://www.w3.org/2000/svg"><g><g><g><g><g><g><path d="m460.024 337.519v108.045h-204.024v-297.838h204.024v99.38" fill="#faf7f5"/></g></g></g><path d="m51.976 147.557h204.024v298.007h-204.024z" fill="#e7e9ef"/></g><path d="m10 445.564h492v46.43h-492z" fill="#b8ecbc"/><path d="m192.988 445.564h-78v-85.568c0-21.539 17.461-39 39-39 21.539 0 39 17.461 39 39z" fill="#ddb9a3"/><path d="m397.012 445.564h-78v-85.568c0-21.539 17.461-39 39-39 21.539 0 39 17.461 39 39z" fill="#ddb9a3"/><g fill="#ccf5fc"><path d="m96.975 202.02h57.013v57.988h-57.013z"/><path d="m153.988 202.02h57.013v57.988h-57.013z"/></g><g fill="#ccf5fc"><path d="m300.999 202.02h57.013v57.988h-57.013z"/><path d="m358.012 202.02h57.013v57.988h-57.013z"/></g><path d="m481.988 147.557-40.024-127.551h-371.927l-40.025 127.551z" fill="#e0c9ed"/><g><path d="m382.359 105.009h-56v-20.952c0-15.464 12.536-28 28-28 15.464 0 28 12.536 28 28z" fill="#ccf5fc"/><g><path d="m185.641 105.009h-56v-20.952c0-15.464 12.536-28 28-28 15.464 0 28 12.536 28 28z" fill="#ccf5fc"/></g></g></g><g><path d="m460.03 302.13c-4.304 0-8.203-2.857-9.52-6.945-1.3-4.034.159-8.557 3.556-11.088 3.297-2.456 7.902-2.577 11.358-.38 3.42 2.175 5.203 6.39 4.406 10.363-.926 4.612-5.089 8.05-9.8 8.05z"/><path d="m502 435.564h-31.976v-98.045c0-5.522-4.477-10-10-10s-10 4.478-10 10v98.045h-43.012v-75.567c0-27.019-21.981-49-49-49-27.018 0-49 21.981-49 49v75.567h-43.012v-277.838h184.024v89.381c0 5.523 4.477 10 10 10s10-4.478 10-10v-89.55h11.964c3.183 0 6.176-1.516 8.06-4.081 1.884-2.566 2.434-5.876 1.481-8.913l-40.024-127.551c-1.309-4.169-5.172-7.006-9.541-7.006h-371.927c-4.37 0-8.233 2.837-9.541 7.006l-40.025 127.551c-.953 3.037-.403 6.347 1.481 8.913 1.884 2.565 4.877 4.081 8.061 4.081h11.964v278.007h-31.977c-5.523 0-10 4.477-10 10v46.431c0 2.652 1.054 5.195 2.929 7.071 1.875 1.875 4.419 2.929 7.071 2.929h492c5.523 0 10-4.478 10-10v-46.431c0-5.523-4.477-10-10-10zm-172.988-75.568c0-15.99 13.009-29 29-29s29 13.01 29 29v75.567h-58zm-251.633-329.99h357.242l33.748 107.551h-424.738zm-15.403 127.551h184.024v278.007h-43.012v-75.567c0-27.019-21.982-49-49-49-27.019 0-49 21.981-49 49v75.567h-43.012zm121.012 278.007h-58v-75.567c0-15.99 13.009-29 29-29s29 13.01 29 29zm309.012 46.43h-472v-26.431h472z"/><path d="m211.001 270.008c5.523 0 10-4.478 10-10v-57.988c0-5.522-4.477-10-10-10h-114.026c-5.523 0-10 4.478-10 10v57.988c0 5.522 4.477 10 10 10zm-10-20h-37.013v-37.988h37.013zm-94.026-37.988h37.013v37.988h-37.013z"/><path d="m300.999 192.02c-5.523 0-10 4.478-10 10v57.988c0 5.522 4.477 10 10 10h114.026c5.523 0 10-4.478 10-10v-57.988c0-5.522-4.477-10-10-10zm10 20h37.013v37.988h-37.013zm94.026 37.988h-37.013v-37.988h37.013z"/><path d="m300.165 115.009h108.387c5.523 0 10-4.477 10-10 0-5.522-4.477-10-10-10h-16.194v-10.952c0-20.953-17.047-38-38-38s-38 17.047-38 38v10.952h-16.193c-5.523 0-10 4.478-10 10s4.478 10 10 10zm36.194-30.952c0-9.925 8.075-18 18-18s18 8.075 18 18v10.952h-36z"/><path d="m103.447 115.009h108.387c5.523 0 10-4.477 10-10 0-5.522-4.477-10-10-10h-16.193v-10.952c0-20.953-17.047-38-38-38s-38 17.047-38 38v10.952h-16.194c-5.523 0-10 4.478-10 10s4.477 10 10 10zm36.194-30.952c0-9.925 8.075-18 18-18s18 8.075 18 18v10.952h-36z"/></g></g></svg>