<?xml version="1.0" encoding="UTF-8"?>
<svg width="134px" height="36px" viewBox="0 0 134 36" version="1.1" xmlns="http://www.w3.org/2000/svg" xmlns:xlink="http://www.w3.org/1999/xlink">
    <!-- Generator: Sketch 59.1 (86144) - https://sketch.com -->
    <title>logo-homedy</title>
    <desc>Created with Sketch.</desc>
    <defs>
        <polygon id="path-1" points="0 0.0370689925 36.5930613 0.0370689925 36.5930613 18.2170398 0 18.2170398"></polygon>
    </defs>
    <g id="Filter" stroke="none" stroke-width="1" fill="none" fill-rule="evenodd">
        <g id="logo-homedy">
            <path d="M18.2964876,9.53671619 C19.67924,9.53671619 20.8003733,10.6578495 20.8003733,12.0399638 C20.8003733,13.4233543 19.67924,14.5438495 18.2964876,14.5438495 C16.9137352,14.5438495 15.7926019,13.4233543 15.7926019,12.0399638 C15.7926019,10.6578495 16.9137352,9.53671619 18.2964876,9.53671619 M18.2964876,17.41464 C14.5444876,14.5527829 8.97902095,16.6380781 8.97902095,22.0299829 C8.97902095,25.9261924 13.8802305,28.6387352 16.2296971,30.2735352 C11.2627638,31.5905638 5.96848762,29.9991543 6.23648762,22.8824781 L6.23648762,13.5847924 L3.03452571,13.5847924 L3.03452571,24.6353257 C3.03452571,32.214621 10.3120019,34.8308114 18.2964876,31.6582019 C26.2809733,34.8308114 33.5590876,32.214621 33.5590876,24.6353257 L33.5590876,13.5847924 L30.3564876,13.5847924 L30.3564876,22.8824781 C30.6627733,31.0041543 23.72604,31.9293924 18.2964876,29.5492971 C14.7091162,27.8340971 12.101221,24.4847352 12.101221,22.0299829 C12.101221,18.9058686 16.7491067,18.1790781 18.2964876,21.42124 C19.8438686,18.1790781 24.4917543,18.9058686 24.4917543,22.0299829 C24.4917543,25.4508114 21.3759352,27.7632686 18.9409638,29.0707257 C19.6505257,29.3853067 20.0601829,29.5059067 20.9420305,29.762421 C23.6335162,28.502821 27.6133162,25.1279352 27.6133162,22.0299829 C27.6133162,16.6380781 22.0484876,14.5527829 18.2964876,17.41464" id="Fill-1" fill="#0094D9"></path>
            <path d="M100.671201,14.2165067 C102.20582,14.2165067 102.95303,15.0460305 103.014925,16.6023448 L98.3057819,16.6023448 C98.3887343,15.0460305 99.17742,14.2165067 100.671201,14.2165067 L100.671201,14.2165067 Z M105.96101,18.7386876 C106.313877,18.7386876 106.583791,18.4694114 106.583791,18.1165448 L106.583791,17.5358781 C106.583791,13.8846971 104.36322,11.913621 100.671201,11.913621 C96.9989629,11.913621 94.7579724,13.9465924 94.7579724,17.6807257 C94.7579724,21.4359162 96.9779057,23.4274114 100.671201,23.4274114 C103.989934,23.4274114 106.209868,22.68084 106.209868,20.5228019 C106.209868,20.1705733 105.940591,19.900659 105.587725,19.900659 L104.072887,19.900659 C103.554753,19.900659 103.181468,20.10804 102.911553,20.4398495 C102.558687,20.8756686 101.791058,21.1245257 100.920058,21.1245257 C99.2188962,21.1245257 98.4723248,20.3983733 98.326201,18.7386876 L105.96101,18.7386876 Z M81.95842,22.5978876 C81.95842,22.9501162 82.2283343,23.2200305 82.5805629,23.2200305 L84.8419724,23.2200305 C85.194839,23.2200305 85.4647533,22.9501162 85.4647533,22.5978876 L85.4647533,16.7886686 C85.4647533,16.4983352 85.4436962,16.2080019 85.40222,15.9176686 C86.1283724,14.9216019 86.9374771,14.3619924 87.6221533,14.3619924 C88.7426486,14.3619924 89.3852105,15.0670876 89.3852105,16.7886686 L89.3852105,22.5978876 C89.3852105,22.9501162 89.6551248,23.2200305 90.0073533,23.2200305 L92.2687629,23.2200305 C92.6216295,23.2200305 92.8915438,22.9501162 92.8915438,22.5978876 L92.8915438,16.7886686 C92.8915438,13.3448686 91.1278486,11.913621 88.5971629,11.913621 C87.1652771,11.913621 85.9005724,12.6608305 84.7379629,13.86364 C83.9499152,12.5778781 82.82942,11.913621 81.1697343,11.913621 C79.7180676,11.913621 78.8464295,12.5982971 78.0373248,13.3863448 L78.0373248,12.7431448 C78.0373248,12.3909162 77.7674105,12.1210019 77.4151819,12.1210019 L75.1537724,12.1210019 C74.8015438,12.1210019 74.5316295,12.3909162 74.5316295,12.7431448 L74.5316295,22.5978876 C74.5316295,22.9501162 74.8015438,23.2200305 75.1537724,23.2200305 L77.4151819,23.2200305 C77.7674105,23.2200305 78.0373248,22.9501162 78.0373248,22.5978876 L78.0373248,15.813659 C78.6805248,14.9216019 79.3237248,14.3619924 80.1947248,14.3619924 C81.31522,14.3619924 81.95842,15.0670876 81.95842,16.7886686 L81.95842,22.5978876 Z M66.5445914,11.913621 C62.6234962,11.913621 60.42462,13.843221 60.42462,17.6603067 C60.42462,21.4773924 62.6234962,23.4274114 66.5445914,23.4274114 C70.4656867,23.4274114 72.6639248,21.4773924 72.6639248,17.6603067 C72.6639248,13.843221 70.4656867,11.913621 66.5445914,11.913621 L66.5445914,11.913621 Z M66.5445914,21.1245257 C64.7815343,21.1245257 63.9309533,20.10804 63.9309533,17.6603067 C63.9309533,15.2125733 64.7815343,14.2165067 66.5445914,14.2165067 C68.3076486,14.2165067 69.1582295,15.2125733 69.1582295,17.6603067 C69.1582295,20.10804 68.3076486,21.1245257 66.5445914,21.1245257 L66.5445914,21.1245257 Z M54.5324486,22.2864971 C54.5324486,22.8046305 54.9682676,23.2200305 55.486401,23.2200305 L57.3745248,23.2200305 C57.9143533,23.2200305 58.3501724,22.7842114 58.3501724,22.26544 L58.3501724,9.63498286 C58.3501724,9.09579238 57.9143533,8.6772019 57.3745248,8.6772019 L55.486401,8.6772019 C54.9682676,8.6772019 54.5324486,9.09579238 54.5324486,9.63498286 L54.5324486,14.2165067 L47.5625343,14.2165067 L47.5625343,9.63498286 C47.5625343,9.09579238 47.1267152,8.6772019 46.6079438,8.6772019 L44.71982,8.6772019 C44.1806295,8.6772019 43.7454486,9.09579238 43.7454486,9.63498286 L43.7454486,22.26544 C43.7454486,22.7842114 44.1806295,23.2200305 44.71982,23.2200305 L46.6079438,23.2200305 C47.1267152,23.2200305 47.5625343,22.8046305 47.5625343,22.2864971 L47.5625343,17.07964 L54.5324486,17.07964 L54.5324486,22.2864971 Z" id="Fill-3" fill="#133866"></path>
            <path d="M125.669092,24.4440886 C125.191797,24.4440886 124.798092,24.2781838 124.341216,24.2781838 L123.96793,24.2781838 C123.615064,24.2781838 123.34515,24.54746 123.34515,24.9003267 L123.34515,26.0208219 C123.34515,26.3315743 123.615064,26.5810695 123.96793,26.6429648 C124.632188,26.7673933 125.773102,26.8503457 126.602626,26.8503457 C128.988464,26.8503457 130.23275,25.4809933 131.166283,22.182679 L133.822035,12.7229171 C133.904988,12.4115267 133.677188,12.1211933 133.34474,12.1211933 L131.208397,12.1211933 C130.835111,12.1211933 130.461826,12.4115267 130.357816,12.8058695 L128.345264,19.9008505 C127.453207,19.9008505 126.810007,19.2780695 126.12533,17.1002505 L124.798092,12.8058695 C124.673026,12.4115267 124.258264,12.1211933 123.884978,12.1211933 L121.769054,12.1211933 C121.437245,12.1211933 121.188388,12.4115267 121.292397,12.7229171 L122.806597,17.6190219 C123.96793,21.3531552 125.523607,22.3485838 127.660588,22.3485838 C127.287302,23.7389933 126.644102,24.4440886 125.669092,24.4440886 M112.951854,23.4276029 C114.425216,23.4276029 115.56613,22.9503076 116.499664,22.2866886 L116.499664,22.597441 C116.499664,22.9503076 116.769578,23.2202219 117.121807,23.2202219 L119.071826,23.2202219 C119.424692,23.2202219 119.694607,22.9503076 119.694607,22.597441 L119.694607,9.30655524 C119.694607,8.9504981 119.424692,8.67739333 119.071826,8.67739333 L116.811054,8.67739333 C116.458188,8.67739333 116.188911,8.9504981 116.188911,9.30655524 L116.188911,12.4319457 C115.33833,12.1626695 114.508169,11.9138124 113.263883,11.9138124 C110.026826,11.9138124 107.82795,13.8638314 107.82795,17.6809171 C107.82795,21.4775838 110.006407,23.4276029 112.951854,23.4276029 M113.782016,20.9792314 C112.12233,20.9792314 111.437654,19.9627457 111.437654,17.6809171 C111.437654,15.3780314 112.12233,14.3615457 113.989397,14.3615457 C114.508169,14.3615457 115.33833,14.5070314 116.188911,14.7769457 L116.188911,20.0667552 C115.462121,20.5229933 114.528588,20.9792314 113.782016,20.9792314" id="Fill-5" fill="#0094D9"></path>
            <path d="M118.006972,29.2537952 C117.694306,29.2537952 117.432687,29.3680143 117.219563,29.5964524 C117.008353,29.8255286 116.876906,30.1452143 116.826496,30.5567857 L119.095563,30.5567857 L119.095563,30.498081 C119.07323,30.1024619 118.967306,29.7968143 118.777153,29.5798619 C118.587001,29.3622714 118.329849,29.2537952 118.006972,29.2537952 L118.006972,29.2537952 Z M118.102687,33.3178238 C117.489477,33.3178238 116.98921,33.1161857 116.603801,32.7129095 C116.21903,32.3089952 116.026325,31.7698048 116.026325,31.0940619 L116.026325,30.9517667 C116.026325,30.5025476 116.11183,30.1011857 116.284115,29.748319 C116.455125,29.3954524 116.695049,29.117881 117.003887,28.9194333 C117.312725,28.7197095 117.647087,28.6195286 118.006972,28.6195286 C118.595934,28.6195286 119.053449,28.8135095 119.380153,29.2008333 C119.705582,29.5894333 119.87021,30.1452143 119.87021,30.8681762 L119.87021,31.1916905 L116.800972,31.1916905 C116.812458,31.637081 116.94263,31.9969667 117.192763,32.2713476 C117.442258,32.5457286 117.759391,32.6835571 118.145439,32.6835571 C118.418544,32.6835571 118.650172,32.6274048 118.840325,32.5157381 C119.030477,32.4047095 119.195744,32.2573095 119.338677,32.0741762 L119.811506,32.4429952 C119.431201,33.0262143 118.861382,33.3178238 118.102687,33.3178238 L118.102687,33.3178238 Z M109.434801,28.7050333 L109.45522,29.2053 C109.787668,28.8154238 110.234972,28.6195286 110.799687,28.6195286 C111.432039,28.6195286 111.86403,28.8620048 112.092468,29.3482333 C112.243058,29.1293667 112.439591,28.9532524 112.68143,28.8205286 C112.921353,28.6865286 113.20722,28.6195286 113.537115,28.6195286 C114.53063,28.6195286 115.034725,29.145319 115.051953,30.1969 L115.051953,33.231681 L114.277306,33.231681 L114.277306,30.2453952 C114.277306,29.922519 114.203287,29.6794048 114.056525,29.519881 C113.90721,29.359719 113.660268,29.2799571 113.310591,29.2799571 C113.02281,29.2799571 112.784163,29.3654619 112.594649,29.5364714 C112.405772,29.708119 112.294106,29.9384714 112.264115,30.2281667 L112.264115,33.231681 L111.485001,33.231681 L111.485001,30.2670905 C111.485001,29.6085762 111.162125,29.2799571 110.518287,29.2799571 C110.011001,29.2799571 109.663877,29.4949952 109.476277,29.9282619 L109.476277,33.231681 L108.70163,33.231681 L108.70163,28.7050333 L109.434801,28.7050333 Z M104.390658,31.0168524 C104.390658,31.5183952 104.506791,31.9229476 104.739058,32.227319 C104.971963,32.5316905 105.285268,32.6835571 105.675144,32.6835571 C106.06821,32.6835571 106.380877,32.5285 106.613144,32.2203 C106.844134,31.9114619 106.960268,31.4801095 106.960268,30.9243286 C106.960268,30.4266143 106.842858,30.0252524 106.607401,29.7170524 C106.371306,29.4082143 106.058001,29.2537952 105.666849,29.2537952 C105.285268,29.2537952 104.97643,29.4050238 104.742249,29.7093952 C104.508068,30.0137667 104.390658,30.4502238 104.390658,31.0168524 L104.390658,31.0168524 Z M103.611544,30.926881 C103.611544,30.4827667 103.698963,30.0839571 103.873801,29.7298143 C104.048001,29.3737571 104.290477,29.1006524 104.601868,28.9079476 C104.91262,28.7152429 105.268039,28.6195286 105.666849,28.6195286 C106.283887,28.6195286 106.782239,28.8320143 107.164458,29.2595381 C107.544763,29.6864238 107.734277,30.2556048 107.734277,30.9645286 L107.734277,31.0187667 C107.734277,31.4603286 107.650687,31.8559476 107.481591,32.2056238 C107.312496,32.5559381 107.071296,32.8290429 106.756715,33.0249381 C106.444049,33.2201952 106.082887,33.3178238 105.675144,33.3178238 C105.060658,33.3178238 104.563582,33.1047 104.183277,32.6778143 C103.801696,32.2502905 103.611544,31.6843 103.611544,30.9817571 L103.611544,30.926881 Z M99.8710295,29.2512429 C100.213687,28.8294619 100.660991,28.6195286 101.210391,28.6195286 C102.167534,28.6195286 102.650572,29.1593571 102.658868,30.2396524 L102.658868,33.231681 L101.88422,33.231681 L101.88422,30.2371 C101.881668,29.9110333 101.80701,29.6691952 101.660249,29.5135 C101.514125,29.3584429 101.285687,29.2799571 100.975572,29.2799571 C100.725439,29.2799571 100.50402,29.3469571 100.313868,29.479681 C100.12563,29.613681 99.9769533,29.7897952 99.8710295,30.0067476 L99.8710295,33.231681 L99.0963819,33.231681 L99.0963819,26.8015952 L99.8710295,26.8015952 L99.8710295,29.2512429 Z M96.2600486,29.3954524 C96.142639,29.3750333 96.0156581,29.3654619 95.8797438,29.3654619 C95.3711819,29.3654619 95.0266105,29.5811381 94.8453914,30.0137667 L94.8453914,33.231681 L94.0707438,33.231681 L94.0707438,28.7050333 L94.8243343,28.7050333 L94.8364581,29.2269952 C95.0916962,28.8224429 95.4509438,28.6195286 95.9173914,28.6195286 C96.06862,28.6195286 96.182839,28.6393095 96.2600486,28.6782333 L96.2600486,29.3954524 Z M91.3148105,29.2537952 C91.0021438,29.2537952 90.7405248,29.3680143 90.527401,29.5964524 C90.3161914,29.8255286 90.1841057,30.1452143 90.1343343,30.5567857 L92.403401,30.5567857 L92.403401,30.498081 C92.3804295,30.1024619 92.2751438,29.7968143 92.0849914,29.5798619 C91.894839,29.3622714 91.6376867,29.2537952 91.3148105,29.2537952 L91.3148105,29.2537952 Z M91.4098867,33.3178238 C90.7973152,33.3178238 90.2970486,33.1161857 89.911639,32.7129095 C89.5268676,32.3089952 89.3341629,31.7698048 89.3341629,31.0940619 L89.3341629,30.9517667 C89.3341629,30.5025476 89.4196676,30.1011857 89.5919533,29.748319 C89.7629629,29.3954524 90.0028867,29.117881 90.3117248,28.9194333 C90.6205629,28.7197095 90.9542867,28.6195286 91.3148105,28.6195286 C91.9037724,28.6195286 92.3606486,28.8135095 92.6879914,29.2008333 C93.01342,29.5894333 93.1780486,30.1452143 93.1780486,30.8681762 L93.1780486,31.1916905 L90.1081724,31.1916905 C90.1202962,31.637081 90.2504676,31.9969667 90.500601,32.2713476 C90.7500962,32.5457286 91.0672295,32.6835571 91.4532771,32.6835571 C91.7257438,32.6835571 91.9580105,32.6274048 92.1481629,32.5157381 C92.3376771,32.4047095 92.5035819,32.2573095 92.6465152,32.0741762 L93.1193438,32.4429952 C92.739039,33.0262143 92.16922,33.3178238 91.4098867,33.3178238 L91.4098867,33.3178238 Z M87.7823152,27.6075095 L87.7823152,28.7050333 L88.6271533,28.7050333 L88.6271533,29.305481 L87.7823152,29.305481 L87.7823152,32.1131 C87.7823152,32.2949571 87.8193248,32.4302333 87.8952581,32.522119 C87.9699152,32.6114524 88.0981724,32.6573952 88.2793914,32.6573952 C88.370001,32.6573952 88.4925152,32.6401667 88.6482105,32.6076238 L88.6482105,33.2348714 C88.44402,33.2891095 88.2468486,33.3178238 88.0541438,33.3178238 C87.7082962,33.3178238 87.4466771,33.2131762 87.2705629,33.0032429 C87.0950867,32.7945857 87.0076676,32.4972333 87.0076676,32.1131 L87.0076676,29.305481 L86.1819724,29.305481 L86.1819724,28.7050333 L87.0076676,28.7050333 L87.0076676,27.6075095 L87.7823152,27.6075095 Z M84.9817152,27.6075095 L84.9817152,28.7050333 L85.8259152,28.7050333 L85.8259152,29.305481 L84.9817152,29.305481 L84.9817152,32.1131 C84.9817152,32.2949571 85.0193629,32.4302333 85.0946581,32.522119 C85.1686771,32.6114524 85.2975724,32.6573952 85.4787914,32.6573952 C85.5687629,32.6573952 85.6919152,32.6401667 85.8482486,32.6076238 L85.8482486,33.2348714 C85.64342,33.2891095 85.4462486,33.3178238 85.2529057,33.3178238 C84.9070581,33.3178238 84.6460771,33.2131762 84.4699629,33.0032429 C84.2944867,32.7945857 84.2070676,32.4972333 84.2070676,32.1131 L84.2070676,29.305481 L83.3807343,29.305481 L83.3807343,28.7050333 L84.2070676,28.7050333 L84.2070676,27.6075095 L84.9817152,27.6075095 Z M81.1703724,29.2537952 C80.8577057,29.2537952 80.5960867,29.3680143 80.383601,29.5964524 C80.1717533,29.8255286 80.0403057,30.1452143 79.9905343,30.5567857 L82.260239,30.5567857 L82.260239,30.498081 C82.2366295,30.1024619 82.1307057,29.7968143 81.9411914,29.5798619 C81.751039,29.3622714 81.4932486,29.2537952 81.1703724,29.2537952 L81.1703724,29.2537952 Z M81.2667248,33.3178238 C80.6535152,33.3178238 80.1532486,33.1161857 79.767201,32.7129095 C79.3830676,32.3089952 79.1903629,31.7698048 79.1903629,31.0940619 L79.1903629,30.9517667 C79.1903629,30.5025476 79.2765057,30.1011857 79.4475152,29.748319 C79.6191629,29.3954524 79.8590867,29.117881 80.1672867,28.9194333 C80.4767629,28.7197095 80.8104867,28.6195286 81.1703724,28.6195286 C81.7593343,28.6195286 82.2168486,28.8135095 82.5441914,29.2008333 C82.8702581,29.5894333 83.0336105,30.1452143 83.0336105,30.8681762 L83.0336105,31.1916905 L79.9650105,31.1916905 C79.9758581,31.637081 80.1066676,31.9969667 80.3561629,32.2713476 C80.6062962,32.5457286 80.9234295,32.6835571 81.308839,32.6835571 C81.5819438,32.6835571 81.8135724,32.6274048 82.0037248,32.5157381 C82.1938771,32.4047095 82.3597819,32.2573095 82.5020771,32.0741762 L82.9755438,32.4429952 C82.595239,33.0262143 82.0247819,33.3178238 81.2667248,33.3178238 L81.2667248,33.3178238 Z M77.636601,30.9313476 C77.636601,30.404281 77.5338676,29.9971762 77.3315914,29.7093952 C77.127401,29.4222524 76.8345152,29.2799571 76.4522962,29.2799571 C75.9405438,29.2799571 75.573639,29.5166905 75.3503057,29.989519 L75.3503057,31.9471952 C75.5876771,32.4200238 75.9584105,32.6573952 76.4599533,32.6573952 C76.8313248,32.6573952 77.1197438,32.5144619 77.3271248,32.227319 C77.5325914,31.9401762 77.636601,31.5075476 77.636601,30.9313476 L77.636601,30.9313476 Z M78.4112486,31.0187667 C78.4112486,31.7117381 78.2517248,32.267519 77.9339533,32.6873857 C77.6155438,33.1078905 77.18802,33.3178238 76.65202,33.3178238 C76.0809248,33.3178238 75.6380867,33.1149095 75.3260581,32.7103571 L75.2877724,33.231681 L74.5762962,33.231681 L74.5762962,26.8015952 L75.3503057,26.8015952 L75.3503057,29.2008333 C75.6642486,28.8135095 76.0949629,28.6195286 76.6443629,28.6195286 C77.194401,28.6195286 77.6257533,28.8281857 77.9403343,29.2435857 C78.2542771,29.6596238 78.4112486,30.2281667 78.4112486,30.9517667 L78.4112486,31.0187667 Z M71.741239,29.3954524 C71.6244676,29.3750333 71.4968486,29.3654619 71.3609343,29.3654619 C70.8530105,29.3654619 70.508439,29.5811381 70.3265819,30.0137667 L70.3265819,33.231681 L69.5519343,33.231681 L69.5519343,28.7050333 L70.3048867,28.7050333 L70.3182867,29.2269952 C70.5722486,28.8224429 70.9327724,28.6195286 71.3985819,28.6195286 C71.5498105,28.6195286 71.6640295,28.6393095 71.741239,28.6782333 L71.741239,29.3954524 Z M67.6216962,32.7862905 C67.3211533,33.1404333 66.8789533,33.3178238 66.2957343,33.3178238 C65.8126962,33.3178238 65.4457914,33.1774429 65.1924676,32.897319 C64.9397819,32.615919 64.812801,32.2017952 64.8096105,31.6517571 L64.8096105,28.7050333 L65.5842581,28.7050333 L65.5842581,31.6287857 C65.5842581,32.3141 65.8624676,32.6573952 66.421439,32.6573952 C67.0129533,32.6573952 67.40602,32.4372524 67.6019152,31.9969667 L67.6019152,28.7050333 L68.3765629,28.7050333 L68.3765629,33.231681 L67.6389248,33.231681 L67.6216962,32.7862905 Z M60.5101248,31.0168524 C60.5101248,31.5183952 60.62562,31.9229476 60.8585248,32.227319 C61.0914295,32.5316905 61.4047343,32.6835571 61.7946105,32.6835571 C62.187039,32.6835571 62.5009819,32.5285 62.7319724,32.2203 C62.963601,31.9114619 63.0790962,31.4801095 63.0790962,30.9243286 C63.0790962,30.4266143 62.9616867,30.0252524 62.7262295,29.7170524 C62.4901343,29.4082143 62.1774676,29.2537952 61.7863152,29.2537952 C61.4047343,29.2537952 61.0958962,29.4050238 60.8610771,29.7093952 C60.6268962,30.0137667 60.5101248,30.4502238 60.5101248,31.0168524 L60.5101248,31.0168524 Z M59.7310105,30.926881 C59.7310105,30.4827667 59.8184295,30.0839571 59.9926295,29.7298143 C60.1668295,29.3737571 60.4099438,29.1006524 60.7219724,28.9079476 C61.0314486,28.7152429 61.3875057,28.6195286 61.7863152,28.6195286 C62.4033533,28.6195286 62.9023438,28.8320143 63.2832867,29.2595381 C63.6635914,29.6864238 63.8537438,30.2556048 63.8537438,30.9645286 L63.8537438,31.0187667 C63.8537438,31.4603286 63.7695152,31.8559476 63.60042,32.2056238 C63.432601,32.5559381 63.1907629,32.8290429 62.87682,33.0249381 C62.5628771,33.2201952 62.2017152,33.3178238 61.7946105,33.3178238 C61.1801248,33.3178238 60.6830486,33.1047 60.3027438,32.6778143 C59.9211629,32.2502905 59.7310105,31.6843 59.7310105,30.9817571 L59.7310105,30.926881 Z M57.4249343,32.0971476 L58.4797057,28.7050333 L59.3085914,28.7050333 L57.4874676,33.929119 C57.2054295,34.6820714 56.7581248,35.0579095 56.143639,35.0579095 L55.9975152,35.0451476 L55.7084581,34.9909095 L55.7084581,34.3636619 L55.9171152,34.3808905 C56.1800105,34.3808905 56.384839,34.3279286 56.5303248,34.2220048 C56.6777248,34.116719 56.7976867,33.9221 56.893401,33.6407 L57.0650486,33.1819095 L55.4487533,28.7050333 L56.2948676,28.7050333 L57.4249343,32.0971476 Z M51.0637629,29.2537952 C50.7510962,29.2537952 50.488839,29.3680143 50.2757152,29.5964524 C50.0645057,29.8255286 49.9330581,30.1452143 49.8832867,30.5567857 L52.1523533,30.5567857 L52.1523533,30.498081 C52.1293819,30.1024619 52.0240962,29.7968143 51.8339438,29.5798619 C51.6437914,29.3622714 51.386639,29.2537952 51.0637629,29.2537952 L51.0637629,29.2537952 Z M51.158839,33.3178238 C50.5462676,33.3178238 50.046001,33.1161857 49.6605914,32.7129095 C49.27582,32.3089952 49.0831152,31.7698048 49.0831152,31.0940619 L49.0831152,30.9517667 C49.0831152,30.5025476 49.16862,30.1011857 49.3402676,29.748319 C49.5119152,29.3954524 49.751839,29.117881 50.0606771,28.9194333 C50.3688771,28.7197095 50.703239,28.6195286 51.0637629,28.6195286 C51.6527248,28.6195286 52.109601,28.8135095 52.4363057,29.2008333 C52.7623724,29.5894333 52.927001,30.1452143 52.927001,30.8681762 L52.927001,31.1916905 L49.8571248,31.1916905 C49.8692486,31.637081 49.9987819,31.9969667 50.2489152,32.2713476 C50.4990486,32.5457286 50.8161819,32.6835571 51.2022295,32.6835571 C51.4746962,32.6835571 51.7069629,32.6274048 51.8971152,32.5157381 C52.0859914,32.4047095 52.2525343,32.2573095 52.3954676,32.0741762 L52.8682962,32.4429952 C52.4879914,33.0262143 51.9181724,33.3178238 51.158839,33.3178238 L51.158839,33.3178238 Z M44.8678581,29.7336429 L46.0808771,29.7336429 C46.4324676,29.7336429 46.7138676,29.6449476 46.9257152,29.4694714 C47.1356486,29.2933571 47.2415724,29.0566238 47.2415724,28.7548048 C47.2415724,28.4191667 47.1426676,28.1766905 46.9486867,28.0248238 C46.7521533,27.871681 46.455439,27.7963857 46.0566295,27.7963857 L44.8678581,27.7963857 L44.8678581,29.7336429 Z M44.8678581,30.3940714 L44.8678581,32.5718905 L46.19382,32.5718905 C46.5683819,32.5718905 46.86382,32.4761762 47.0801343,32.2834714 C47.2958105,32.0901286 47.4042867,31.824681 47.4042867,31.4871286 C47.4042867,30.7584238 47.0054771,30.3940714 46.2065819,30.3940714 L44.8678581,30.3940714 Z M44.06322,33.231681 L44.06322,27.1359571 L46.0566295,27.1359571 C46.7183343,27.1359571 47.2160486,27.2731476 47.5484962,27.5475286 C47.8815819,27.8206333 48.0487629,28.2264619 48.0487629,28.7637381 C48.0487629,29.0483286 47.9683629,29.3010143 47.8056486,29.519881 C47.6442105,29.7393857 47.4240676,29.9097571 47.1439438,30.029719 C47.4744771,30.1209667 47.7341819,30.297081 47.9256105,30.5542333 C48.1176771,30.8126619 48.2114771,31.1202238 48.2114771,31.4756429 C48.2114771,32.0231286 48.0347248,32.4519286 47.6799438,32.763319 C47.3251629,33.0759857 46.8255343,33.231681 46.1785057,33.231681 L44.06322,33.231681 Z" id="Fill-7" fill="#133866"></path>
            <g id="Group-11" transform="translate(0.000000, 0.600894)">
                <mask id="mask-2" fill="white">
                    <use xlink:href="#path-1"></use>
                </mask>
                <g id="Clip-10"></g>
                <path d="M19.5265438,0.544295238 L36.0710771,15.2651524 C36.7863819,15.9013333 36.7474581,17.0492667 36.0710771,17.7256476 C35.3940581,18.4026667 34.3290771,18.3586381 33.6099438,17.7256476 L18.2962962,4.2350381 L2.98264857,17.7256476 C2.26351524,18.358 1.19853429,18.4026667 0.522153333,17.7256476 C-0.154865714,17.0492667 -0.193151429,15.9013333 0.522153333,15.2651524 L17.0526486,0.558333333 C17.7245629,-0.13272381 18.8463343,-0.135914286 19.5265438,0.544295238" id="Fill-9" fill="#0094D9" mask="url(#mask-2)"></path>
            </g>
        </g>
    </g>
</svg>